<?xml version="1.0" encoding="utf-8"?>
<!-- Generator: Adobe Illustrator 17.1.0, SVG Export Plug-In . SVG Version: 6.00 Build 0)  -->
<!DOCTYPE svg PUBLIC "-//W3C//DTD SVG 1.1//EN" "http://www.w3.org/Graphics/SVG/1.1/DTD/svg11.dtd">
<svg version="1.1" id="Ebene_1" xmlns="http://www.w3.org/2000/svg" xmlns:xlink="http://www.w3.org/1999/xlink" x="0px" y="0px"
	 viewBox="0 0 26.5 30" enable-background="new 0 0 26.5 30" xml:space="preserve">
<g>
	<path fill="#E6332A" d="M0.2,7.6c0,0-0.4,14.1,0,14.9c0.4,0.8,12.9,8.1,12.9,7.4c0-0.6,0.2-6.8-0.4-7.4C12.1,21.8,0.2,7.6,0.2,7.6
		L0.2,7.6z"/>
</g>
<path fill="#BE1622" d="M0.2,7.7L0.2,7.7c0,0,3.1,3.7,6.2,7.3c3-3.6,6-7.2,6.3-7.5c0.6-0.7,0.4-6.8,0.4-7.4S0.6,6.7,0.2,7.5
	C0.2,7.5,0.2,7.6,0.2,7.7L0.2,7.7z"/>
<g>
	<path fill="#E6332A" d="M26.3,22.4c0,0,0.4-14.1,0-14.9c-0.4-0.8-12.9-8.1-12.9-7.4s-0.2,6.8,0.4,7.4C14.4,8.2,26.3,22.4,26.3,22.4
		L26.3,22.4z"/>
</g>
<path fill="#BE1622" d="M26.3,22.3L26.3,22.3c0,0-3.1-3.7-6.2-7.3c-3,3.6-6,7.2-6.3,7.5c-0.6,0.7-0.4,6.8-0.4,7.4
	c0,0.6,12.5-6.6,12.9-7.4C26.3,22.5,26.3,22.4,26.3,22.3L26.3,22.3z"/>
</svg>
